SplineFontDB: 3.2
FontName: Novafont-Bold
FullName: Novafont Bold
FamilyName: Novafont
Weight: Bold
Copyright: Copyright (c) 2024, Ravelin Wright
UComments: "2024-7-24: Created with FontForge (http://fontforge.org)"
Version: 001.000
ItalicAngle: 0
UnderlinePosition: -100
UnderlineWidth: 50
Ascent: 672
Descent: 328
InvalidEm: 0
LayerCount: 2
Layer: 0 0 "Back" 1
Layer: 1 0 "Fore" 0
XUID: [1021 317 855815283 14267]
OS2Version: 0
OS2_WeightWidthSlopeOnly: 0
OS2_UseTypoMetrics: 1
CreationTime: 1721800324
ModificationTime: 1721810243
OS2TypoAscent: 0
OS2TypoAOffset: 1
OS2TypoDescent: 0
OS2TypoDOffset: 1
OS2TypoLinegap: 0
OS2WinAscent: 0
OS2WinAOffset: 1
OS2WinDescent: 0
OS2WinDOffset: 1
HheadAscent: 0
HheadAOffset: 1
HheadDescent: 0
HheadDOffset: 1
OS2Vendor: 'PfEd'
Lookup: 258 0 0 "'kern' Horizontal Kerning in Latin lookup 0" { "'kern' Horizontal Kerning in Latin lookup 0-2" [30,0,3] "'kern' Horizontal Kerning in Latin lookup 0-1" [15,0,3] } ['kern' ('DFLT' <'dflt' > 'latn' <'dflt' > ) ]
MarkAttachClasses: 1
DEI: 91125
Encoding: ISO8859-1
UnicodeInterp: none
NameList: AGL For New Fonts
DisplaySize: -48
AntiAlias: 1
FitToEm: 0
WidthSeparation: 30
WinInfo: 0 19 14
BeginPrivate: 0
EndPrivate
BeginChars: 256 61

StartChar: A
Encoding: 65 65 0
Width: 853
Flags: HW
LayerCount: 2
Fore
SplineSet
426.700195312 522.5 m 1
 593.900390625 456.099609375 833.5 180 853.200195312 4.5 c 1
 689.200195312 4.5 l 1
 689.200195312 63.599609375 l 1
 752.30078125 63.599609375 l 2
 834.80078125 63.599609375 631.100585938 300.299804688 455.600585938 300.299804688 c 1
 455.600585938 390.599609375 l 1
 397.600585938 390.599609375 l 1
 397.600585938 300.299804688 l 1
 222.100585938 300.299804688 18.400390625 63.599609375 100.900390625 63.599609375 c 2
 164 63.599609375 l 1
 164 4.5 l 1
 0 4.5 l 1
 19.900390625 180 259.5 456.099609375 426.700195312 522.5 c 1
EndSplineSet
EndChar

StartChar: B
Encoding: 66 66 1
Width: 722
Flags: HW
LayerCount: 2
Fore
SplineSet
595 263.5 m 1
 951.900390625 128.599609375 467.5 23.2998046875 232.200195312 28.400390625 c 1
 232.200195312 28.2998046875 232.299804688 28.2998046875 232.299804688 28.2001953125 c 0
 213.100585938 11.7998046875 174.700195312 4.900390625 145.900390625 4.900390625 c 0
 117.100585938 4.900390625 61.2001953125 11.7001953125 42 28.2001953125 c 1
 94.400390625 75.5 101.900390625 156.299804688 102.600585938 247.900390625 c 1
 190 221.400390625 l 1
 192.100585938 172.400390625 197.900390625 125.599609375 207.400390625 88.5 c 1
 336.100585938 75.7998046875 570.5 137.799804688 617.400390625 176.700195312 c 1
 617.400390625 176.700195312 523.5 225.400390625 396.900390625 225.400390625 c 0
 225.900390625 225.400390625 138.5 263.5 138.5 263.5 c 1
 138.5 263.5 226 301.599609375 396.900390625 301.599609375 c 0
 523.5 301.599609375 617.400390625 350.299804688 617.400390625 350.299804688 c 1
 570.5 389.200195312 336 451.099609375 207.400390625 438.5 c 1
 197.900390625 401.400390625 192.100585938 354.599609375 190 305.599609375 c 1
 102.5 279.099609375 l 1
 101.100585938 369.900390625 85.900390625 444.200195312 0 498.799804688 c 1
 19.2001953125 515.200195312 117.100585938 522.099609375 145.900390625 522.099609375 c 0
 174.700195312 522.099609375 213.100585938 515.299804688 232.299804688 498.799804688 c 0
 232.299804688 498.700195312 232.200195312 498.700195312 232.200195312 498.599609375 c 1
 467.5 503.700195312 951.900390625 398.400390625 595 263.5 c 1
EndSplineSet
EndChar

StartChar: C
Encoding: 67 67 2
Width: 766
Flags: HW
LayerCount: 2
Fore
SplineSet
59.2001953125 263.5 m 0
 58.7998046875 340.5 39 416.900390625 0 448.200195312 c 1
 202.900390625 463.299804688 524 578.200195312 766.200195312 474.400390625 c 1
 734.600585938 320.599609375 l 1
 668.299804688 326.900390625 l 1
 766.100585938 474.5 166.299804688 546.700195312 166.299804688 263.400390625 c 0
 166.299804688 -19.900390625 766.100585938 52.2998046875 668.299804688 199.900390625 c 1
 734.600585938 206.200195312 l 1
 766.200195312 52.400390625 l 1
 524 -51.400390625 202.900390625 63.5 0 78.599609375 c 1
 39 110.099609375 58.7998046875 186.599609375 59.2001953125 263.5 c 0
EndSplineSet
EndChar

StartChar: D
Encoding: 68 68 3
Width: 786
Flags: HW
LayerCount: 2
Fore
SplineSet
86.400390625 522.200195312 m 1
 86.400390625 522.200195312 785.5 502.599609375 785.5 263.599609375 c 0
 785.5 24.599609375 86.400390625 5 86.400390625 5 c 1
 57.6005859375 5 19.2001953125 11.7998046875 0 28.2998046875 c 1
 57.6005859375 106.700195312 57.6005859375 420.5 0 498.900390625 c 1
 19.2001953125 515.299804688 57.6005859375 522.200195312 86.400390625 522.200195312 c 1
190.100585938 78 m 1
 346.5 89 687.80078125 128.400390625 687.80078125 263.5 c 0
 687.80078125 398.599609375 346.400390625 438 190.100585938 449 c 1
 146.700195312 397.799804688 113.400390625 317.700195312 113.400390625 263.5 c 0
 113.400390625 209.299804688 146.700195312 129.200195312 190.100585938 78 c 1
EndSplineSet
EndChar

StartChar: E
Encoding: 69 69 4
Width: 807
Flags: HW
LayerCount: 2
Fore
SplineSet
0 130.200195312 m 1
 328.899414062 150.799804688 264.299804688 359.299804688 16.099609375 391.400390625 c 1
 182 555.799804688 584.299804688 560.200195312 779.5 378.200195312 c 1
 685.399414062 310 l 1
 602.599609375 325.599609375 l 1
 718.799804688 425 363.5 467.799804688 300 432.200195312 c 0
 236.5 396.599609375 304.099609375 277.700195312 376.899414062 275.599609375 c 0
 596.399414062 269.299804688 744.69921875 240.299804688 744.69921875 240.299804688 c 1
 744.69921875 240.299804688 594.5 219 379.5 212.099609375 c 0
 304.69921875 209.700195312 281.899414062 94.7998046875 341.799804688 68.599609375 c 0
 417.899414062 32.5 726.399414062 57.099609375 668.099609375 160.5 c 1
 724.399414062 169.599609375 l 1
 806.69921875 88.5 l 1
 562.19921875 -25 145.599609375 -28.7998046875 0 130.200195312 c 1
EndSplineSet
EndChar

StartChar: F
Encoding: 70 70 5
Width: 786
Flags: HW
LayerCount: 2
Fore
SplineSet
205.899414062 340.299804688 m 1
 315.700195312 201.200195312 643.399414062 296.299804688 643.399414062 296.299804688 c 1
 654.700195312 283.099609375 659.399414062 256.799804688 659.399414062 237 c 0
 659.399414062 217.200195312 654.700195312 190.900390625 643.399414062 177.700195312 c 1
 643.399414062 177.700195312 16.599609375 283.799804688 291 37.099609375 c 1
 265.200195312 15 213.700195312 5.7998046875 175.099609375 5.7998046875 c 0
 136.5 5.7998046875 85 15 59.2001953125 37.099609375 c 1
 219.700195312 197.599609375 160.099609375 357.5 0 517.599609375 c 1
 184 459 549.099609375 463.400390625 770.700195312 495.299804688 c 1
 781.299804688 483 785.700195312 458.299804688 785.700195312 439.700195312 c 0
 785.700195312 421.200195312 781.299804688 396.5 770.700195312 384.099609375 c 1
 770.899414062 384.299804688 391.5 497.099609375 205.899414062 340.299804688 c 1
EndSplineSet
EndChar

StartChar: G
Encoding: 71 71 6
Width: 792
Flags: HW
LayerCount: 2
Fore
SplineSet
651.400390625 273.900390625 m 0
 720.799804688 272.799804688 791.5 249.400390625 791.5 225 c 0
 791.5 60.2001953125 659.900390625 9 456 9 c 0
 317.799804688 9 52.2001953125 151.599609375 0 243.599609375 c 1
 52.2001953125 344.400390625 269.299804688 488.799804688 407.299804688 500.700195312 c 0
 480.100585938 507 716.400390625 467.5 773.900390625 519 c 1
 786.400390625 504.400390625 791.600585938 475.299804688 791.600585938 453.400390625 c 0
 791.600585938 431.5 786.400390625 402.400390625 773.900390625 387.799804688 c 1
 659.799804688 426.700195312 487 429.599609375 487 429.599609375 c 1
 378.200195312 425.799804688 267.900390625 354.299804688 250.799804688 274.099609375 c 1
 189.400390625 274.099609375 l 1
 189.400390625 204.099609375 l 1
 260.200195312 204.099609375 l 1
 293.400390625 135.799804688 390.900390625 79.599609375 486.900390625 76.2998046875 c 1
 571 79.2998046875 656.100585938 123 698.200195312 179.700195312 c 1
 683.200195312 177.400390625 667.100585938 176.200195312 651.400390625 175.900390625 c 0
 582.100585938 177 511.400390625 200.400390625 511.400390625 224.900390625 c 0
 511.400390625 249.400390625 582.100585938 272.799804688 651.400390625 273.900390625 c 0
EndSplineSet
EndChar

StartChar: H
Encoding: 72 72 7
Width: 649
Flags: HW
LayerCount: 2
Fore
SplineSet
520 23.7998046875 m 2
 520 23.7998046875 645.100585938 198.599609375 324.700195312 198.599609375 c 0
 4.30078125 198.599609375 129.400390625 23.7998046875 129.400390625 23.7998046875 c 2
 115 7.2998046875 86.30078125 0.5 64.7001953125 0.5 c 0
 43.1005859375 0.5 14.400390625 7.400390625 0 23.7998046875 c 1
 43.1005859375 102.200195312 43.1005859375 416 0 494.400390625 c 1
 14.400390625 510.900390625 43.1005859375 517.700195312 64.7001953125 517.700195312 c 0
 86.30078125 517.700195312 115 510.799804688 129.400390625 494.400390625 c 2
 129.400390625 494.400390625 10.900390625 272.599609375 324.700195312 272.599609375 c 0
 638.5 272.599609375 520 494.400390625 520 494.400390625 c 2
 534.400390625 510.900390625 563.100585938 517.700195312 584.700195312 517.700195312 c 0
 606.30078125 517.700195312 635 510.799804688 649.400390625 494.400390625 c 1
 606.30078125 416 606.30078125 102.200195312 649.400390625 23.7998046875 c 1
 635 7.2998046875 606.30078125 0.5 584.700195312 0.5 c 0
 563.100585938 0.5 534.400390625 7.2998046875 520 23.7998046875 c 2
EndSplineSet
EndChar

StartChar: I
Encoding: 73 73 8
Width: 534
Flags: HW
LayerCount: 2
Fore
SplineSet
488.400390625 113.599609375 m 1
 519.80078125 97.900390625 534.200195312 57 534 57 c 0
 489.400390625 40.599609375 398.30078125 37.099609375 335 36.7998046875 c 1
 336.80078125 32.2001953125 338.700195312 27.7998046875 340.700195312 23.7998046875 c 1
 324.30078125 7.400390625 291.600585938 0.5 267 0.5 c 0
 242.400390625 0.5 209.700195312 7.2998046875 193.30078125 23.7998046875 c 1
 195.30078125 27.7998046875 197.200195312 32.2001953125 199 36.7998046875 c 1
 135.700195312 37.099609375 44.6005859375 40.599609375 0 57 c 1
 0 57 14.400390625 97.900390625 45.80078125 113.599609375 c 1
 92.1005859375 101.200195312 167.200195312 100 216.80078125 100.900390625 c 1
 234.400390625 193.099609375 234.900390625 323.200195312 217 416.099609375 c 1
 167.400390625 417 92.2001953125 415.900390625 45.900390625 403.400390625 c 1
 14.400390625 419.099609375 0.1005859375 460 0.1005859375 460 c 1
 44.80078125 476.400390625 135.900390625 479.900390625 199.200195312 480.200195312 c 1
 197.30078125 484.700195312 195.400390625 489.200195312 193.400390625 493.200195312 c 1
 209.80078125 509.599609375 242.5 516.5 267.100585938 516.5 c 0
 291.700195312 516.5 324.400390625 509.700195312 340.80078125 493.200195312 c 1
 338.80078125 489.200195312 336.900390625 484.799804688 335 480.200195312 c 1
 398.30078125 479.900390625 489.5 476.400390625 534.100585938 460 c 1
 534.100585938 460 519.700195312 419.099609375 488.30078125 403.400390625 c 1
 442 415.900390625 366.80078125 417 317.200195312 416.099609375 c 1
 299.400390625 323.200195312 299.80078125 193 317.400390625 100.900390625 c 1
 367.100585938 100 442.100585938 101.099609375 488.400390625 113.599609375 c 1
EndSplineSet
EndChar

StartChar: J
Encoding: 74 74 9
Width: 749
Flags: HW
LayerCount: 2
Fore
SplineSet
515.700195312 477.900390625 m 1
 541.600585938 492.5 593.400390625 498.5 632.200195312 498.5 c 0
 671 498.5 722.799804688 492.400390625 748.700195312 477.900390625 c 1
 671 408.5 671 131.099609375 748.700195312 61.7998046875 c 1
 488 -8.900390625 96.5 -13 0 172 c 1
 65.1005859375 249.799804688 l 1
 106.600585938 238.799804688 l 1
 -71.2998046875 91.900390625 486.799804688 27.400390625 562.799804688 137.200195312 c 1
 562.799804688 137.200195312 632.200195312 300.400390625 515.700195312 477.900390625 c 1
EndSplineSet
EndChar

StartChar: K
Encoding: 75 75 10
Width: 726
Flags: HW
LayerCount: 2
Fore
SplineSet
689.80078125 71.2998046875 m 1
 711.700195312 66.099609375 725.900390625 59.7001953125 725.900390625 53 c 0
 725.900390625 38.2998046875 655.200195312 24.2998046875 585.900390625 23.599609375 c 0
 516.600585938 24.2998046875 445.900390625 38.2998046875 445.900390625 53 c 0
 445.900390625 65.2001953125 494.5 76.900390625 550.700195312 80.900390625 c 1
 464.400390625 181.799804688 267.200195312 239.5 129.700195312 246.900390625 c 1
 130.900390625 153 145.200195312 61.2998046875 172.80078125 23.7001953125 c 1
 153.600585938 7.2998046875 115.200195312 0.400390625 86.400390625 0.400390625 c 0
 57.6005859375 0.400390625 19.2001953125 7.2001953125 0 23.7001953125 c 1
 57.6005859375 102.099609375 57.6005859375 415.900390625 0 494.299804688 c 1
 19.2001953125 510.700195312 57.6005859375 517.599609375 86.400390625 517.599609375 c 0
 115.200195312 517.599609375 153.600585938 510.799804688 172.80078125 494.299804688 c 1
 149 461.900390625 135 389.299804688 130.900390625 309.799804688 c 1
 270.200195312 316.799804688 466.600585938 369.299804688 539.400390625 438 c 1
 488.200195312 442.700195312 445.900390625 453.700195312 445.900390625 465 c 0
 445.900390625 479.700195312 516.600585938 493.700195312 585.900390625 494.400390625 c 0
 655.200195312 493.700195312 725.900390625 479.700195312 725.900390625 465 c 0
 725.900390625 456.299804688 700.900390625 447.799804688 666 442.200195312 c 1
 610.400390625 406.700195312 502.80078125 353.299804688 511.400390625 278.400390625 c 0
 521.5 190.700195312 655.5 166.599609375 689.80078125 71.2998046875 c 1
EndSplineSet
EndChar

StartChar: L
Encoding: 76 76 11
Width: 767
Flags: HW
LayerCount: 2
Fore
SplineSet
183.700195312 110 m 1
 420.799804688 163.299804688 588.799804688 194.799804688 766.700195312 78.2001953125 c 1
 701.599609375 0.400390625 l 1
 660.099609375 11.400390625 l 1
 720 158.299804688 309 110.200195312 233 0.400390625 c 1
 47.099609375 75.900390625 l 1
 47.099609375 75.900390625 116.5 300.099609375 0 477.599609375 c 1
 25.8994140625 492.099609375 77.7001953125 498.200195312 116.5 498.200195312 c 0
 155.299804688 498.200195312 207.099609375 492.200195312 233 477.599609375 c 1
 179 429.400390625 162.599609375 219.5 183.700195312 110 c 1
EndSplineSet
EndChar

StartChar: M
Encoding: 77 77 12
Width: 789
Flags: HW
LayerCount: 2
Fore
SplineSet
597.474609375 517 m 1
 730.174804688 448.099609375 812.174804688 172 782.57421875 -0.7998046875 c 1
 707.474609375 -4.2001953125 618.474609375 14.2998046875 559.07421875 70 c 1
 597.474609375 110 l 1
 597.474609375 110 651.375 75.900390625 682.974609375 79.2001953125 c 1
 732.57421875 45.7998046875 l 1
 758.375 83.900390625 l 1
 710.474609375 116.299804688 l 1
 712.774414062 164.700195312 689.174804688 308.599609375 597.57421875 402.5 c 1
 546.57421875 385.799804688 439.875 235.599609375 394.375 150.5 c 1
 348.875 235.700195312 242.174804688 385.900390625 191.174804688 402.5 c 1
 99.474609375 308.599609375 75.974609375 164.700195312 78.2744140625 116.299804688 c 1
 30.375 83.900390625 l 1
 56.1748046875 45.7998046875 l 1
 105.674804688 79.2998046875 l 1
 137.274414062 75.900390625 191.174804688 110.099609375 191.174804688 110.099609375 c 1
 229.57421875 70.099609375 l 1
 170.174804688 14.2998046875 81.1748046875 -4.099609375 6.07421875 -0.7001953125 c 1
 -23.625 172 58.375 448 191.07421875 517 c 1
 257.174804688 489.599609375 356.274414062 360 394.274414062 278.400390625 c 1
 432.274414062 360 531.375 489.599609375 597.474609375 517 c 1
EndSplineSet
EndChar

StartChar: N
Encoding: 78 78 13
Width: 822
Flags: HW
LayerCount: 2
Fore
SplineSet
724.048828125 515.200195312 m 1
 809.848632812 415.700195312 892.749023438 168.299804688 724.048828125 -0.599609375 c 1
 593.548828125 102.900390625 402.149414062 244.700195312 402.149414062 244.700195312 c 1
 342.348632812 284 269.44921875 343.299804688 164.848632812 384.099609375 c 0
 -27.55078125 459.099609375 19.2490234375 -48.900390625 175.94921875 140.099609375 c 1
 212.149414062 98.099609375 l 1
 97.8486328125 2.7998046875 l 1
 12.048828125 102.299804688 -70.8505859375 349.700195312 97.8486328125 518.700195312 c 1
 228.348632812 415.200195312 419.749023438 273.400390625 419.749023438 273.400390625 c 1
 479.548828125 234.099609375 552.44921875 174.799804688 657.048828125 134 c 0
 849.348632812 59 802.548828125 567.099609375 645.94921875 377.900390625 c 1
 609.749023438 419.900390625 l 1
 724.048828125 515.200195312 l 1
EndSplineSet
EndChar

StartChar: O
Encoding: 79 79 14
Width: 809
Flags: HW
LayerCount: 2
Fore
SplineSet
264.399414062 258.200195312 m 0
 264.399414062 282.700195312 335 306 404.399414062 307.200195312 c 0
 473.69921875 306.099609375 544.399414062 282.700195312 544.399414062 258.200195312 c 0
 544.399414062 233.700195312 473.69921875 210.299804688 404.399414062 209.200195312 c 0
 335.099609375 210.299804688 264.399414062 233.700195312 264.399414062 258.200195312 c 0
101.69921875 259.5 m 0
 101.69921875 146.400390625 271.19921875 48 337.19921875 48 c 1
 337.19921875 2 l 1
 254.69921875 2 0 130.099609375 0 258.200195312 c 0
 0 387.599609375 211.399414062 517 422.69921875 517 c 1
 422.69921875 339.900390625 l 1
 378.599609375 339.900390625 l 1
 378.599609375 339.900390625 383.399414062 465.099609375 323.899414062 465.099609375 c 0
 309.899414062 465.099609375 284.399414062 460.400390625 262 449.5 c 0
 187.399414062 414.200195312 101.69921875 345.299804688 101.69921875 259.5 c 0
471.69921875 514.400390625 m 1
 554.099609375 514.400390625 808.799804688 386.299804688 809 258.200195312 c 0
 809 128.700195312 597.599609375 -0.7001953125 386.19921875 -0.7001953125 c 1
 386.19921875 176.5 l 1
 430.299804688 176.5 l 1
 430.299804688 176.5 425.5 51.2998046875 485 51.2998046875 c 0
 499 51.2998046875 524.5 56 546.899414062 66.900390625 c 0
 621.5 102.200195312 707.19921875 171.099609375 707.19921875 256.900390625 c 0
 707.19921875 369.900390625 537.599609375 468.400390625 471.69921875 468.400390625 c 1
 471.69921875 514.400390625 l 1
EndSplineSet
EndChar

StartChar: P
Encoding: 80 80 15
Width: 727
Flags: HW
LayerCount: 2
Fore
SplineSet
726.600585938 442.599609375 m 1
 680 379.299804688 662.600585938 346.900390625 720.799804688 259.299804688 c 1
 642.200195312 194.700195312 443.400390625 214.900390625 336.900390625 235.200195312 c 1
 351.700195312 365.299804688 l 1
 393 354.599609375 l 1
 333.900390625 209.599609375 734.5 184.599609375 623.200195312 416.299804688 c 1
 -15.7001953125 616.5 171.400390625 82.599609375 256.200195312 27.400390625 c 1
 227.700195312 3 170.799804688 -7.2001953125 128.100585938 -7.2001953125 c 0
 85.400390625 -7.2001953125 28.5 3 0 27.400390625 c 1
 142.900390625 144 130.799804688 310.900390625 30.2998046875 434.5 c 1
 190.5 510.799804688 476.100585938 564.299804688 726.600585938 442.599609375 c 1
EndSplineSet
EndChar

StartChar: Q
Encoding: 81 81 16
Width: 792
Flags: HW
LayerCount: 2
Fore
SplineSet
776.5 493 m 1
 668.799804688 379 635.5 115.799804688 791.599609375 -96.099609375 c 1
 584.299804688 3.099609375 310.599609375 104.200195312 24.5 17.7001953125 c 1
 101.69921875 119 147.19921875 415.599609375 0 518.799804688 c 1
 222.599609375 476.599609375 571.399414062 430.900390625 776.5 493 c 1
533 66.400390625 m 1
 578.099609375 53.7001953125 621.099609375 39.599609375 661.5 26.099609375 c 1
 643.299804688 66.099609375 632.399414062 106.099609375 626.799804688 144.900390625 c 1
 533 66.400390625 l 1
622.599609375 230.099609375 m 1
 626.099609375 313.299804688 650.599609375 383.700195312 672.599609375 423.299804688 c 1
 483.5 388.900390625 242.899414062 427.900390625 116.69921875 450.5 c 1
 175.299804688 341.5 156.299804688 176.700195312 125.5 94.599609375 c 1
 241 118.299804688 350.69921875 108.700195312 451.5 86.900390625 c 1
 622.599609375 230.099609375 l 1
EndSplineSet
EndChar

StartChar: R
Encoding: 82 82 17
Width: 780
Flags: HW
LayerCount: 2
Fore
SplineSet
412.200195312 255.599609375 m 0
 594.399414062 91.7998046875 627.700195312 89.099609375 683.599609375 131.700195312 c 1
 730.700195312 90 l 1
 619.200195312 8.900390625 l 1
 270.899414062 274.299804688 l 1
 268.399414062 168.900390625 282.799804688 58.2998046875 313.799804688 16 c 1
 294.599609375 -0.400390625 256.200195312 -7.2998046875 227.399414062 -7.2998046875 c 0
 198.599609375 -7.2998046875 160.200195312 -0.5 141 16 c 1
 172.899414062 59.5 187.099609375 175.599609375 183.599609375 283.700195312 c 2
 183.599609375 350.900390625 l 1
 287.099609375 330.200195312 515 294.400390625 653.200195312 401.5 c 1
 506.099609375 515.5 257.5 467.599609375 165.200195312 448.400390625 c 1
 0 485.599609375 l 1
 157.200195312 519.5 528.899414062 602.700195312 779.5 401.5 c 1
 666.099609375 310.400390625 528 277.700195312 396.099609375 272.200195312 c 1
 396.099609375 272.200195312 401.5 265.299804688 412.200195312 255.599609375 c 0
393.5 434.799804688 m 0
 462.899414062 434.099609375 533.5 418.400390625 533.5 402 c 0
 533.5 385.599609375 462.799804688 370 393.5 369.200195312 c 0
 324.200195312 370 253.5 385.599609375 253.5 402 c 0
 253.5 418.400390625 324.200195312 434 393.5 434.799804688 c 0
EndSplineSet
EndChar

StartChar: S
Encoding: 83 83 18
Width: 777
Flags: HW
LayerCount: 2
Fore
SplineSet
173.299804688 390.700195312 m 0
 173.299804688 356.200195312 l 1
 338.299804688 259.099609375 576.19921875 339.599609375 765.299804688 211.400390625 c 1
 765.299804688 94.2998046875 l 1
 675.899414062 -26.400390625 180.799804688 -11.2998046875 40.69921875 23.2998046875 c 1
 40.69921875 147.5 l 1
 88.19921875 165.200195312 l 1
 124.399414062 -19.7998046875 542 44.7001953125 586.69921875 119.099609375 c 1
 586.69921875 173.900390625 l 1
 430.299804688 292.900390625 173.19921875 211.400390625 0 314.400390625 c 1
 0 407.200195312 l 1
 212 571.700195312 613.099609375 521.599609375 776.899414062 469.900390625 c 1
 759.69921875 342.599609375 l 1
 706.399414062 343.900390625 l 1
 791.599609375 525.700195312 170.099609375 510.200195312 173.299804688 390.700195312 c 0
EndSplineSet
EndChar

StartChar: T
Encoding: 84 84 19
Width: 793
Flags: HW
LayerCount: 2
Fore
SplineSet
396.400390625 424 m 1
 396.400390625 424 651.400390625 549.599609375 792.80078125 513 c 1
 763.400390625 392.400390625 l 1
 619.5 364.900390625 691.5 511.5 475.5 392.400390625 c 1
 424.600585938 347.700195312 378 150.299804688 513.80078125 14.5 c 1
 486.600585938 1.2998046875 445.200195312 -1.5 396.400390625 -1.5 c 0
 347.600585938 -1.5 306.200195312 1.2998046875 279 14.5 c 1
 414.80078125 150.400390625 368.200195312 347.700195312 317.30078125 392.400390625 c 1
 101.400390625 511.5 173.400390625 364.900390625 29.400390625 392.400390625 c 1
 0 513 l 1
 141.400390625 549.700195312 396.400390625 424 396.400390625 424 c 1
EndSplineSet
EndChar

StartChar: U
Encoding: 85 85 20
Width: 799
Flags: HW
LayerCount: 2
Fore
SplineSet
644.299804688 515.099609375 m 1
 725.600585938 468.299804688 799.100585938 370.799804688 799 255.700195312 c 0
 799 179.799804688 782 107 744.100585938 53.7001953125 c 1
 650.100585938 2 399.5 -2.7998046875 399.5 -2.7998046875 c 1
 399.5 -2.7998046875 148.900390625 2 54.900390625 53.7001953125 c 1
 17.1005859375 106.900390625 0 179.799804688 0 255.700195312 c 0
 0 370.799804688 73.5 468.299804688 154.700195312 515.099609375 c 1
 324 476.799804688 l 1
 295.400390625 431.599609375 l 1
 295.400390625 431.599609375 88 468.799804688 90.2998046875 264.799804688 c 0
 91 244.299804688 92.900390625 223.900390625 95.900390625 203.900390625 c 0
 116.700195312 109.799804688 313.5 54.5 399.5 54.5 c 0
 485.5 54.5 682.400390625 109.799804688 703.100585938 203.900390625 c 0
 706.100585938 223.900390625 708 244.299804688 708.700195312 264.799804688 c 0
 710.900390625 468.799804688 503.600585938 431.599609375 503.600585938 431.599609375 c 1
 475 476.799804688 l 1
 644.299804688 515.099609375 l 1
EndSplineSet
EndChar

StartChar: V
Encoding: 86 86 21
Width: 853
Flags: HW
LayerCount: 2
Fore
SplineSet
426.5 -2.900390625 m 1
 259.299804688 63.5 19.69921875 339.599609375 0 515.099609375 c 1
 164 515.099609375 l 1
 164 456 l 1
 100.899414062 456 l 2
 18.3994140625 456 222.099609375 219.299804688 397.599609375 219.299804688 c 1
 397.599609375 129 l 1
 455.599609375 129 l 1
 455.599609375 219.299804688 l 1
 630.899414062 219.299804688 834.599609375 456 752.099609375 456 c 2
 689 456 l 1
 689 515.099609375 l 1
 853 515.099609375 l 1
 833.299804688 339.700195312 593.69921875 63.599609375 426.5 -2.900390625 c 1
EndSplineSet
EndChar

StartChar: W
Encoding: 87 87 22
Width: 789
Flags: HW
LayerCount: 2
Fore
SplineSet
782.57421875 514.799804688 m 1
 812.173828125 342.099609375 730.173828125 66 597.474609375 -3 c 1
 531.374023438 24.400390625 432.274414062 154.099609375 394.274414062 235.599609375 c 1
 356.274414062 154.099609375 257.173828125 24.400390625 191.07421875 -3 c 1
 58.3740234375 66 -23.6259765625 342.099609375 6.07421875 514.799804688 c 1
 81.07421875 518.200195312 170.173828125 499.700195312 229.474609375 444 c 1
 191.07421875 404 l 1
 -9.1259765625 528.200195312 97.2744140625 240.900390625 167.07421875 139.900390625 c 1
 167.07421875 77.400390625 l 1
 215.07421875 77.400390625 l 1
 215.07421875 125.799804688 l 1
 270.374023438 168.599609375 355.07421875 290.200195312 394.274414062 363.599609375 c 1
 433.57421875 290.200195312 518.173828125 168.599609375 573.474609375 125.799804688 c 1
 573.474609375 77.400390625 l 1
 621.474609375 77.400390625 l 1
 621.474609375 139.900390625 l 1
 691.274414062 240.900390625 797.673828125 528.099609375 597.474609375 404 c 1
 559.07421875 444 l 1
 618.474609375 499.799804688 707.474609375 518.200195312 782.57421875 514.799804688 c 1
EndSplineSet
EndChar

StartChar: X
Encoding: 88 88 23
Width: 590
Flags: HW
LayerCount: 2
Fore
SplineSet
560.802734375 121.200195312 m 1
 571.202148438 116.700195312 580.702148438 113.299804688 588.90234375 111.299804688 c 1
 594.802734375 83.7001953125 579.702148438 51.2001953125 563.001953125 31.2998046875 c 0
 546.302734375 11.400390625 517.001953125 -9.099609375 488.802734375 -8.099609375 c 1
 485.602539062 -0.7998046875 480.302734375 8.099609375 473.702148438 17.900390625 c 1
 462.40234375 11 450.102539062 6.7001953125 436.802734375 7.2001953125 c 1
 403.702148438 35 l 1
 420.202148438 34.2998046875 434.90234375 41.5 448.102539062 51.7001953125 c 1
 404.001953125 104.700195312 336.802734375 164.599609375 292.702148438 164.599609375 c 0
 252.302734375 164.599609375 185.90234375 104.799804688 142.001953125 51.7001953125 c 1
 155.202148438 41.400390625 169.90234375 34.2998046875 186.501953125 34.900390625 c 1
 153.40234375 7.099609375 l 1
 140.102539062 6.599609375 127.802734375 10.900390625 116.501953125 17.7998046875 c 1
 109.90234375 8 104.602539062 -1 101.40234375 -8.2001953125 c 1
 73.302734375 -9.2998046875 43.90234375 11.2998046875 27.2021484375 31.2001953125 c 0
 10.501953125 51.099609375 -4.59765625 83.599609375 1.302734375 111.200195312 c 1
 9.7021484375 113.200195312 19.2021484375 116.700195312 29.6025390625 121.200195312 c 1
 24.7021484375 133.599609375 22.6025390625 146.599609375 25.40234375 159.700195312 c 1
 58.501953125 187.5 l 1
 54.90234375 171.099609375 59.6025390625 155.200195312 67.501953125 140.299804688 c 1
 115.702148438 167.299804688 174.802734375 209 233.702148438 256.099609375 c 1
 174.802734375 303.200195312 115.602539062 345 67.501953125 371.900390625 c 1
 59.6025390625 357 55.001953125 341.099609375 58.501953125 324.700195312 c 1
 25.40234375 352.5 l 1
 22.501953125 365.599609375 24.7021484375 378.599609375 29.6025390625 391 c 1
 19.2021484375 395.5 9.6025390625 398.900390625 1.302734375 401 c 1
 -4.59765625 428.599609375 10.501953125 461.099609375 27.2021484375 481 c 0
 43.90234375 500.900390625 73.2021484375 521.400390625 101.40234375 520.400390625 c 1
 104.602539062 513.099609375 109.90234375 504.200195312 116.501953125 494.400390625 c 1
 127.802734375 501.299804688 140.102539062 505.599609375 153.40234375 505.099609375 c 1
 186.702148438 477.299804688 l 1
 170.202148438 477.900390625 155.501953125 470.799804688 142.302734375 460.599609375 c 1
 186.501953125 407.400390625 253.501953125 347.299804688 295.302734375 347.299804688 c 0
 337.102539062 347.299804688 404.102539062 407.400390625 448.302734375 460.599609375 c 1
 435.102539062 470.799804688 420.501953125 477.900390625 403.90234375 477.299804688 c 1
 437.001953125 505.099609375 l 1
 450.302734375 505.599609375 462.602539062 501.299804688 473.90234375 494.400390625 c 1
 480.501953125 504.200195312 485.802734375 513.200195312 489.001953125 520.400390625 c 1
 517.102539062 521.5 546.501953125 500.900390625 563.202148438 481 c 0
 579.90234375 461.099609375 595.001953125 428.599609375 589.102539062 401 c 1
 580.702148438 399 571.202148438 395.5 560.802734375 391 c 1
 565.702148438 378.599609375 567.802734375 365.599609375 565.001953125 352.5 c 1
 531.90234375 324.700195312 l 1
 535.501953125 341.099609375 530.802734375 357 522.90234375 371.900390625 c 1
 474.702148438 344.900390625 415.602539062 303.200195312 356.702148438 256.099609375 c 1
 415.602539062 209 474.802734375 167.200195312 522.90234375 140.299804688 c 1
 530.802734375 155.200195312 535.40234375 171.099609375 531.90234375 187.5 c 1
 565.001953125 159.700195312 l 1
 567.90234375 146.599609375 565.702148438 133.599609375 560.802734375 121.200195312 c 1
EndSplineSet
EndChar

StartChar: Y
Encoding: 89 89 24
Width: 704
Flags: HW
LayerCount: 2
Fore
SplineSet
669.099609375 516.299804688 m 1
 669.099609375 516.400390625 l 1
 704 516.400390625 l 1
 683.799804688 353.5 511.700195312 -24.099609375 42 -7.599609375 c 1
 42 32.599609375 l 1
 182.099609375 52.599609375 342.099609375 83.2998046875 339.399414062 161.900390625 c 0
 336.700195312 240.5 171.799804688 324 0 493.700195312 c 1
 71.8994140625 502.400390625 l 1
 213.599609375 378.200195312 321.200195312 248 416.599609375 256.700195312 c 0
 512 265.400390625 612 394.099609375 669.099609375 516.299804688 c 1
EndSplineSet
EndChar

StartChar: Z
Encoding: 90 90 25
Width: 730
Flags: HW
LayerCount: 2
Fore
SplineSet
502.400390625 416 m 1
 385.900390625 445.900390625 79.5 514.099609375 39.5 335.400390625 c 1
 3.6005859375 342.099609375 l 1
 13.7001953125 484.299804688 l 1
 247.900390625 553.200195312 640.400390625 494.599609375 730.400390625 458.599609375 c 1
 484.100585938 316.299804688 334.299804688 233.799804688 228 94.2001953125 c 1
 344.5 64.2998046875 650.900390625 -3.900390625 690.900390625 174.799804688 c 1
 726.799804688 168.099609375 l 1
 716.700195312 25.900390625 l 1
 482.5 -43 90 15.599609375 0 51.599609375 c 1
 246.299804688 193.900390625 396.100585938 276.400390625 502.400390625 416 c 1
EndSplineSet
EndChar

StartChar: a
Encoding: 97 97 26
Width: 516
Flags: HW
LayerCount: 2
Fore
SplineSet
516.200195312 -0.7998046875 m 1
 464.600585938 -0.7998046875 l 1
 428.100585938 140.700195312 309.600585938 192.400390625 258.100585938 192.400390625 c 0
 206.600585938 192.400390625 88.1005859375 140.700195312 51.6005859375 -0.7998046875 c 1
 0 -0.7998046875 l 1
 11.80078125 93.2998046875 127.700195312 273.400390625 258.100585938 320.5 c 1
 388.400390625 273.5 504.400390625 93.2998046875 516.200195312 -0.7998046875 c 1
EndSplineSet
EndChar

StartChar: b
Encoding: 98 98 27
Width: 465
Flags: HW
LayerCount: 2
Fore
SplineSet
465.200195312 216.299804688 m 1
 418.200195312 182 313.799804688 147.700195312 209.399414062 147.700195312 c 1
 313.799804688 147.700195312 418.200195312 113.5 465.200195312 79.2001953125 c 1
 372 20.7001953125 129 -24.900390625 0 20.7001953125 c 1
 76.599609375 70.7001953125 69 220 0 274.799804688 c 1
 129 320.400390625 372 274.799804688 465.200195312 216.299804688 c 1
147.700195312 251.5 m 1
 130 233.799804688 137.299804688 198.400390625 163.899414062 185.099609375 c 1
 163.899414062 185.099609375 241.799804688 195 282.299804688 218.099609375 c 1
 259.899414062 248.400390625 147.700195312 251.5 147.700195312 251.5 c 1
282.299804688 77.400390625 m 1
 241.799804688 100.599609375 163.899414062 110.400390625 163.899414062 110.400390625 c 0
 137.399414062 97.099609375 130 61.7001953125 147.700195312 44 c 1
 147.700195312 44 259.899414062 47.099609375 282.299804688 77.400390625 c 1
EndSplineSet
EndChar

StartChar: c
Encoding: 99 99 28
Width: 464
Flags: HW
LayerCount: 2
Fore
SplineSet
151.200195312 91.099609375 m 1
 187.30078125 22.7998046875 313.600585938 19 463.80078125 66.2001953125 c 1
 347 -55.7998046875 11.900390625 14.2998046875 0 55.599609375 c 1
 5.400390625 57.2998046875 10.1005859375 60 14.5 63.2001953125 c 1
 14.5 244.599609375 l 1
 10.1005859375 247.799804688 5.400390625 250.5 0 252.200195312 c 1
 11.900390625 293.5 347 363.599609375 463.80078125 241.599609375 c 1
 313.600585938 288.799804688 187.400390625 285 151.200195312 216.700195312 c 0
 115 148.400390625 151.200195312 91.099609375 151.200195312 91.099609375 c 1
EndSplineSet
EndChar

StartChar: d
Encoding: 100 100 29
Width: 482
Flags: HW
LayerCount: 2
Fore
SplineSet
0 293.5 m 1
 144.600585938 320.799804688 394.700195312 283.900390625 481.80078125 153.299804688 c 1
 394.700195312 22.7001953125 144.700195312 -14.2001953125 0 13.099609375 c 1
 0 14.2998046875 l 1
 55.2001953125 93.7001953125 59.30078125 220.299804688 0 293.5 c 1
107.700195312 153.900390625 m 0
 107.700195312 6.7998046875 416.700195312 153.900390625 416.700195312 153.900390625 c 1
 416.700195312 153.900390625 107.700195312 301 107.700195312 153.900390625 c 0
EndSplineSet
EndChar

StartChar: e
Encoding: 101 101 30
Width: 464
Flags: HW
LayerCount: 2
Fore
SplineSet
151.200195312 90.599609375 m 1
 187.299804688 22.2998046875 313.600585938 18.5 463.799804688 65.7001953125 c 1
 347 -56.2998046875 11.900390625 13.7998046875 0 55.099609375 c 1
 5.400390625 56.7998046875 10.1005859375 59.5 14.5 62.7001953125 c 1
 14.5 244.099609375 l 1
 10.1005859375 247.299804688 5.400390625 250 0 251.700195312 c 1
 11.900390625 293 347 363.099609375 463.799804688 241.099609375 c 1
 313.600585938 288.299804688 187.400390625 284.5 151.200195312 216.200195312 c 1
 158.900390625 201.599609375 170.700195312 190 185.900390625 181.200195312 c 1
 244.799804688 175 305.100585938 181.900390625 338.5 153.400390625 c 1
 305.100585938 125 244.799804688 131.799804688 185.900390625 125.599609375 c 1
 170.700195312 116.799804688 158.900390625 105.099609375 151.200195312 90.599609375 c 1
EndSplineSet
EndChar

StartChar: f
Encoding: 102 102 31
Width: 468
Flags: HW
LayerCount: 2
Fore
SplineSet
0 296.200195312 m 1
 95.599609375 331.400390625 417.299804688 297.900390625 468.299804688 265.200195312 c 1
 466.19921875 256.700195312 l 1
 356.099609375 249.599609375 254.69921875 277.799804688 175.19921875 217.400390625 c 1
 241 170.200195312 350 196.900390625 422.19921875 154.799804688 c 1
 389.5 118 117.899414062 166 172.399414062 25.400390625 c 1
 160.19921875 9 135.899414062 2.099609375 117.599609375 2.099609375 c 0
 99.3994140625 2.099609375 75 8.900390625 62.7998046875 25.400390625 c 1
 99.599609375 94.900390625 58.599609375 268.799804688 0 296.200195312 c 1
EndSplineSet
EndChar

StartChar: g
Encoding: 103 103 32
Width: 480
Flags: HW
LayerCount: 2
Fore
SplineSet
480.299804688 249 m 1
 472.299804688 230 l 1
 384.099609375 256 176.599609375 256.599609375 154.399414062 206.900390625 c 1
 132.299804688 139.200195312 l 1
 217.899414062 76 l 2
 264.700195312 41.5 357 85.599609375 357 132.700195312 c 1
 328.899414062 147.700195312 255.700195312 148.700195312 236.799804688 140.700195312 c 1
 225.599609375 156.599609375 l 1
 292.799804688 190.799804688 415.099609375 172.5 441.200195312 148.700195312 c 1
 417.099609375 111.599609375 424.799804688 40.400390625 445.200195312 22.400390625 c 1
 288.799804688 -27.7001953125 78.599609375 26.400390625 19.099609375 61.5 c 1
 69.2001953125 135.700195312 131.299804688 253.400390625 0 289.099609375 c 1
 83.2001953125 327.200195312 366 299.599609375 480.299804688 249 c 1
EndSplineSet
EndChar

StartChar: h
Encoding: 104 104 33
Width: 419
Flags: HW
LayerCount: 2
Fore
SplineSet
45.099609375 153.299804688 m 0
 45.099609375 206.200195312 0 254.700195312 0 254.700195312 c 0
 30.2001953125 280.599609375 80.2001953125 296.599609375 130.5 304.599609375 c 1
 114.899414062 266 92.2998046875 178.599609375 209.5 178.599609375 c 0
 326.799804688 178.599609375 304.099609375 266.099609375 288.5 304.599609375 c 1
 338.899414062 296.599609375 388.799804688 280.599609375 419 254.700195312 c 1
 419 254.700195312 373.899414062 206.200195312 373.899414062 153.299804688 c 0
 373.899414062 100.400390625 419 51.900390625 419 51.900390625 c 1
 388.799804688 26 338.799804688 10 288.5 2 c 1
 304.099609375 40.599609375 326.700195312 128 209.5 128 c 0
 92.2001953125 128 114.899414062 40.5 130.5 2 c 1
 80.099609375 10 30.2001953125 26 0 51.900390625 c 1
 0 51.900390625 45.099609375 100.400390625 45.099609375 153.299804688 c 0
EndSplineSet
EndChar

StartChar: i
Encoding: 105 105 34
Width: 139
Flags: HW
LayerCount: 2
Fore
SplineSet
109.099609375 41 m 1
 117.200195312 32.2001953125 126.899414062 25.5 138.599609375 21.900390625 c 1
 123.200195312 8.7001953125 92.3994140625 3.2001953125 69.2998046875 3.2001953125 c 0
 46.2001953125 3.2001953125 15.3994140625 8.7001953125 0 21.900390625 c 1
 11.7001953125 25.5 21.3994140625 32.2001953125 29.5 41 c 1
 29.5 265.700195312 l 1
 21.3994140625 274.5 11.7001953125 281.200195312 0 284.799804688 c 1
 15.3994140625 298 46.2001953125 303.5 69.2998046875 303.5 c 0
 92.3994140625 303.5 123.200195312 298 138.599609375 284.799804688 c 1
 126.899414062 281.200195312 117.200195312 274.5 109.099609375 265.700195312 c 1
 109.099609375 222.400390625 109.099609375 84.2998046875 109.099609375 41 c 1
EndSplineSet
EndChar

StartChar: j
Encoding: 106 106 35
Width: 443
Flags: HW
LayerCount: 2
Fore
SplineSet
413.200195312 260.400390625 m 1
 413.100585938 260.400390625 l 1
 413.100585938 57.400390625 l 1
 417.5 54.2001953125 422.200195312 51.5 427.600585938 49.7998046875 c 1
 415.700195312 8.5 116.80078125 -61.599609375 0 60.400390625 c 1
 150.200195312 13.2001953125 244 41.2998046875 286.200195312 85.2998046875 c 0
 328.400390625 129.299804688 343.600585938 167.900390625 333.600585938 260.400390625 c 1
 325.5 269.299804688 315.80078125 275.900390625 304.100585938 279.599609375 c 1
 319.5 292.799804688 350.30078125 298.299804688 373.400390625 298.299804688 c 0
 396.5 298.299804688 427.30078125 292.799804688 442.700195312 279.599609375 c 1
 431 275.900390625 421.30078125 269.200195312 413.200195312 260.400390625 c 1
EndSplineSet
EndChar

StartChar: k
Encoding: 107 107 36
Width: 421
Flags: HW
LayerCount: 2
Fore
SplineSet
304.700195312 150.200195312 m 1
 449.400390625 94.900390625 407.5 2.5 407.5 2.599609375 c 0
 326.400390625 67.7001953125 218.400390625 104.599609375 131 125.299804688 c 1
 135 85.5 148.80078125 46.7998046875 172.80078125 14.2001953125 c 1
 153.600585938 -2.2001953125 115.200195312 -9.099609375 86.400390625 -9.099609375 c 0
 57.6005859375 -9.099609375 19.2001953125 -2.2998046875 0 14.2001953125 c 1
 28.2001953125 52.5 42.5 99.2998046875 43.1005859375 146.200195312 c 2
 43.1005859375 153.200195312 l 2
 42.30078125 199.900390625 28 246.400390625 0 284.599609375 c 1
 19.2001953125 301 57.6005859375 307.900390625 86.400390625 307.900390625 c 0
 115.200195312 307.900390625 153.600585938 301.099609375 172.80078125 284.599609375 c 1
 149.100585938 252.200195312 135.30078125 213.900390625 131.100585938 174.5 c 1
 224.30078125 195.700195312 340.400390625 234.599609375 420.200195312 304.5 c 1
 420.200195312 304.5 434.200195312 208.200195312 304.700195312 150.200195312 c 1
EndSplineSet
EndChar

StartChar: l
Encoding: 108 108 37
Width: 443
Flags: HW
LayerCount: 2
Fore
SplineSet
156.5 83.2998046875 m 0
 198.799804688 39.2998046875 292.5 11.2001953125 442.599609375 58.400390625 c 1
 325.799804688 -63.599609375 26.8994140625 6.5 15 47.7998046875 c 1
 20.3994140625 49.5 25.099609375 52.2001953125 29.5 55.400390625 c 1
 29.5 258.400390625 l 1
 21.3994140625 267.299804688 11.7001953125 274 0 277.599609375 c 1
 15.3994140625 290.799804688 46.2001953125 296.299804688 69.2998046875 296.299804688 c 0
 92.3994140625 296.299804688 123.200195312 290.799804688 138.599609375 277.599609375 c 1
 126.899414062 273.900390625 117.200195312 267.299804688 109.099609375 258.400390625 c 1
 99.099609375 165.799804688 114.299804688 127.200195312 156.5 83.2998046875 c 0
EndSplineSet
EndChar

StartChar: m
Encoding: 109 109 38
Width: 499
Flags: HW
LayerCount: 2
Fore
SplineSet
249.1640625 182.5 m 1
 259.463867188 219.900390625 315.563476562 289.200195312 378.263671875 299.900390625 c 1
 378.263671875 299.900390625 567.963867188 147.5 470.864257812 -10 c 1
 463.364257812 59.7998046875 405.763671875 139.799804688 351.364257812 158 c 1
 308.6640625 145 260.263671875 90.7998046875 249.263671875 6.5 c 1
 238.263671875 90.7998046875 189.864257812 145 147.1640625 158 c 1
 92.763671875 139.900390625 35.0634765625 59.7998046875 27.6640625 -10 c 1
 -69.4365234375 147.5 120.263671875 299.900390625 120.263671875 299.900390625 c 1
 182.763671875 289.200195312 238.864257812 219.799804688 249.1640625 182.5 c 1
EndSplineSet
EndChar

StartChar: n
Encoding: 110 110 39
Width: 422
Flags: HW
LayerCount: 2
Fore
SplineSet
264.399414062 157.700195312 m 1
 328.200195312 177.200195312 352.5 247.5 373.5 312.599609375 c 1
 422.299804688 312.599609375 l 1
 422.299804688 150.099609375 422.299804688 52.599609375 315.799804688 -12.400390625 c 1
 267 -12.400390625 l 1
 246 52.7001953125 221.700195312 123 157.899414062 142.5 c 1
 94 123 69.7998046875 52.7001953125 48.7998046875 -12.400390625 c 1
 0 -12.400390625 l 1
 0 150.099609375 0 248.799804688 106.5 312.599609375 c 1
 155.299804688 312.599609375 l 1
 176.299804688 247.5 200.599609375 177.200195312 264.399414062 157.700195312 c 1
EndSplineSet
EndChar

StartChar: o
Encoding: 111 111 40
Width: 472
Flags: HW
LayerCount: 2
Fore
SplineSet
235.899414062 311.5 m 0
 352.099609375 311.5 471.799804688 208.700195312 471.799804688 150.099609375 c 0
 471.799804688 91.5 352.099609375 -11.2998046875 235.899414062 -11.2998046875 c 0
 119.700195312 -11.2998046875 0 91.5 0 150.099609375 c 0
 0 208.700195312 119.700195312 311.5 235.899414062 311.5 c 0
235.899414062 56.099609375 m 0
 309.399414062 56.099609375 349.299804688 112.299804688 349.299804688 150.099609375 c 0
 349.299804688 187.900390625 309.399414062 244.299804688 235.899414062 244.299804688 c 0
 162.399414062 244.299804688 122.5 188 122.5 150.200195312 c 0
 122.5 112.400390625 162.399414062 56.099609375 235.899414062 56.099609375 c 0
EndSplineSet
EndChar

StartChar: p
Encoding: 112 112 41
Width: 446
Flags: HW
LayerCount: 2
Fore
SplineSet
29.5 27.400390625 m 1
 29.5 86.099609375 29.5 246.700195312 29.5 246.799804688 c 0
 22.80078125 253.799804688 14.80078125 259 5.30078125 262 c 1
 5.30078125 262 82.80078125 317.299804688 215.200195312 317.299804688 c 0
 347.600585938 317.299804688 446.30078125 259.400390625 446.30078125 259.400390625 c 1
 407.80078125 217.5 396.600585938 123.900390625 396.600585938 123.900390625 c 1
 296.700195312 109.700195312 148.80078125 157.799804688 148.80078125 157.799804688 c 1
 148.80078125 174.099609375 l 1
 270.900390625 153.599609375 352.900390625 159.5 352.900390625 230.799804688 c 1
 334.700195312 265.099609375 272.400390625 275.799804688 249.100585938 275.799804688 c 0
 225.80078125 275.799804688 168.200195312 267.099609375 145.30078125 230.799804688 c 0
 122.400390625 194.5 108 146 109.100585938 35.900390625 c 0
 109.100585938 32.900390625 109.100585938 30 109.100585938 27.400390625 c 0
 117.200195312 18.7001953125 127 12.2998046875 138.600585938 8.7001953125 c 1
 123.200195312 -4.5 92.400390625 -10 69.30078125 -10 c 0
 46.2001953125 -10 15.400390625 -4.5 0 8.7001953125 c 1
 11.6005859375 12.2998046875 21.400390625 18.7001953125 29.5 27.400390625 c 1
EndSplineSet
EndChar

StartChar: q
Encoding: 113 113 42
Width: 472
Flags: HW
LayerCount: 2
Fore
SplineSet
471.799804688 151.200195312 m 0
 471.799804688 122.400390625 442.900390625 83 399.799804688 50.400390625 c 1
 434.100585938 6.2998046875 454.100585938 -41.099609375 439.900390625 -55.2998046875 c 0
 423.200195312 -71.900390625 361.200195312 -41.7001953125 312.200195312 3.5 c 1
 287.400390625 -5 261.600585938 -10.2001953125 235.900390625 -10.2001953125 c 0
 119.700195312 -10.2001953125 0 92.599609375 0 151.200195312 c 0
 0 209.799804688 119.700195312 312.599609375 235.900390625 312.599609375 c 0
 352.100585938 312.599609375 471.799804688 209.799804688 471.799804688 151.200195312 c 0
122.600585938 151.200195312 m 0
 122.600585938 113.400390625 162.400390625 57.099609375 236 57 c 0
 246.5 57 256.299804688 58.2998046875 265.400390625 60.400390625 c 1
 241.799804688 96.7998046875 230.299804688 131 242 142.700195312 c 0
 255 155.799804688 296 140 336.700195312 110.799804688 c 1
 345 124.5 349.400390625 138.900390625 349.400390625 151.200195312 c 0
 349.400390625 189 309.5 245.299804688 236 245.299804688 c 0
 162.5 245.299804688 122.600585938 188.900390625 122.600585938 151.200195312 c 0
EndSplineSet
EndChar

StartChar: r
Encoding: 114 114 43
Width: 498
Flags: HW
LayerCount: 2
Fore
SplineSet
174.700195312 120.700195312 m 1
 149.399414062 83.599609375 192.399414062 20.599609375 192.5 20.5 c 0
 173.399414062 -1.099609375 135.399414062 -10.099609375 106.799804688 -10.099609375 c 0
 78.2001953125 -10.099609375 40.099609375 -1.099609375 21.099609375 20.5 c 1
 21.099609375 20.5 148.399414062 132.299804688 0 250.299804688 c 1
 0 250.299804688 62.2998046875 319.400390625 307.700195312 291.599609375 c 0
 553.099609375 263.799804688 518.399414062 149.599609375 239.799804688 150.200195312 c 1
 239.799804688 150.200195312 425.200195312 92.7001953125 497.899414062 -10 c 1
 392.099609375 6.7998046875 174.700195312 120.700195312 174.700195312 120.700195312 c 1
145.099609375 245.5 m 2
 145.099609375 195.700195312 l 1
 145.099609375 195.700195312 357.700195312 199.799804688 357.700195312 220.599609375 c 0
 357.700195312 241.5 145.099609375 245.5 145.099609375 245.5 c 2
EndSplineSet
EndChar

StartChar: s
Encoding: 115 115 44
Width: 466
Flags: HW
LayerCount: 2
Fore
SplineSet
227.799804688 130.799804688 m 0
 154.299804688 148.599609375 112 145.200195312 3.599609375 187.599609375 c 1
 3.599609375 261.700195312 l 1
 93.3994140625 306.900390625 323.799804688 343.599609375 466 261.700195312 c 1
 456.5 233.5 l 1
 346.5 286.400390625 205.899414062 278.799804688 155.099609375 223.099609375 c 1
 165.599609375 196.700195312 187.599609375 175.400390625 238.19921875 164.099609375 c 0
 311.799804688 146.299804688 354 149.799804688 462.399414062 107.299804688 c 1
 462.399414062 33.2001953125 l 1
 372.599609375 -12 142.19921875 -48.7001953125 0 33.2001953125 c 1
 9.5 61.400390625 l 1
 119.5 8.5 260.099609375 16.099609375 310.899414062 71.7998046875 c 1
 300.399414062 98.2001953125 278.399414062 119.5 227.799804688 130.799804688 c 0
EndSplineSet
EndChar

StartChar: t
Encoding: 116 116 45
Width: 425
Flags: HW
LayerCount: 2
Fore
SplineSet
221.299804688 286.599609375 m 1
 265.5 309.200195312 359 310.799804688 425 310.700195312 c 1
 425 277 l 1
 269.299804688 277 252.299804688 183.099609375 252.299804688 149.299804688 c 0
 252.299804688 103.900390625 252.299804688 58.599609375 252.299804688 37 c 1
 260.399414062 28.2001953125 270.099609375 21.5 281.799804688 17.900390625 c 1
 266.399414062 4.7001953125 235.599609375 -0.7998046875 212.5 -0.7998046875 c 0
 189.399414062 -0.7998046875 158.599609375 4.7001953125 143.200195312 17.900390625 c 1
 154.899414062 21.5 164.599609375 28.2001953125 172.700195312 37 c 1
 172.700195312 149.299804688 l 2
 172.700195312 183.099609375 155.700195312 277 0 277 c 1
 0 310.700195312 l 1
 66 310.700195312 159.5 309.200195312 203.700195312 286.599609375 c 1
 221.299804688 286.599609375 l 1
EndSplineSet
EndChar

StartChar: u
Encoding: 117 117 46
Width: 502
Flags: HW
LayerCount: 2
Fore
SplineSet
501.599609375 251.200195312 m 1
 456.5 231 421.799804688 153.099609375 474.399414062 71.5 c 1
 474.399414062 71.5 375.5 -3.599609375 250.799804688 -3.599609375 c 0
 126.099609375 -3.599609375 27.19921875 71.5 27.19921875 71.5 c 1
 79.7998046875 153.099609375 45.19921875 231.099609375 0 251.200195312 c 1
 35.5 281.5 93.5 300.599609375 152.5 310.5 c 1
 97.19921875 15.5 404.399414062 15.5 349.099609375 310.5 c 1
 408.099609375 300.700195312 466.099609375 281.599609375 501.599609375 251.200195312 c 1
EndSplineSet
EndChar

StartChar: v
Encoding: 118 118 47
Width: 516
Flags: HW
LayerCount: 2
Fore
SplineSet
0 309.5 m 0
 51.599609375 309.5 l 1
 88.099609375 168 206.599609375 116.299804688 258.099609375 116.299804688 c 0
 309.599609375 116.299804688 428.099609375 168 464.599609375 309.5 c 1
 516.200195312 309.5 l 1
 504.400390625 215.400390625 388.5 35.2998046875 258.099609375 -11.7998046875 c 1
 127.799804688 35.2001953125 11.7998046875 215.400390625 0 309.5 c 0
EndSplineSet
EndChar

StartChar: w
Encoding: 119 119 48
Width: 499
Flags: HW
LayerCount: 2
Fore
SplineSet
249.263671875 110 m 1
 238.963867188 72.599609375 182.86328125 3.2998046875 120.263671875 -7.400390625 c 1
 120.263671875 -7.400390625 -69.4365234375 145 27.6640625 302.5 c 1
 44.86328125 302.5 l 1
 52.36328125 232.700195312 92.86328125 152.599609375 147.263671875 134.5 c 1
 189.86328125 147.5 227.6640625 201.700195312 238.6640625 286 c 1
 259.963867188 286 l 1
 270.963867188 201.700195312 308.6640625 147.5 351.36328125 134.5 c 1
 405.86328125 152.700195312 446.263671875 232.700195312 453.763671875 302.5 c 1
 470.963867188 302.5 l 1
 568.063476562 145 378.36328125 -7.400390625 378.36328125 -7.400390625 c 1
 315.6640625 3.2998046875 259.563476562 72.599609375 249.263671875 110 c 1
EndSplineSet
EndChar

StartChar: x
Encoding: 120 120 49
Width: 368
Flags: HW
LayerCount: 2
Fore
SplineSet
328.291992188 80.2998046875 m 1
 342.692382812 78.7998046875 355.791992188 80.5 367.091796875 86.2001953125 c 1
 371.091796875 62.7001953125 357.091796875 34.2998046875 342.291992188 16.599609375 c 0
 327.391601562 -1.099609375 301.791992188 -19.7998046875 277.9921875 -19.900390625 c 1
 281.692382812 -7.7998046875 281.091796875 5.400390625 277.091796875 19.400390625 c 1
 183.891601562 97.599609375 l 1
 90.6923828125 19.400390625 l 1
 86.6923828125 5.400390625 86.091796875 -7.7998046875 89.7919921875 -19.900390625 c 1
 65.8916015625 -19.7998046875 40.2919921875 -1.099609375 25.4921875 16.599609375 c 0
 10.6923828125 34.2998046875 -3.3076171875 62.7001953125 0.6923828125 86.2001953125 c 1
 11.9921875 80.5 24.9921875 78.7998046875 39.4921875 80.2998046875 c 1
 56.4921875 94.5 87.3916015625 120.400390625 121.9921875 149.5 c 1
 39.4921875 218.700195312 l 1
 25.091796875 220.200195312 11.9921875 218.5 0.6923828125 212.799804688 c 1
 -3.3076171875 236.299804688 10.6923828125 264.700195312 25.4921875 282.400390625 c 0
 40.3916015625 300.099609375 65.9921875 318.799804688 89.7919921875 318.900390625 c 1
 86.091796875 306.799804688 86.6923828125 293.599609375 90.6923828125 279.599609375 c 1
 109.391601562 263.900390625 144.9921875 234 183.891601562 201.400390625 c 1
 222.791992188 234 258.391601562 263.900390625 277.091796875 279.599609375 c 1
 281.091796875 293.599609375 281.692382812 306.799804688 277.9921875 318.900390625 c 1
 301.891601562 318.799804688 327.4921875 300.099609375 342.291992188 282.400390625 c 0
 357.091796875 264.700195312 371.091796875 236.299804688 367.091796875 212.799804688 c 1
 355.791992188 218.5 342.791992188 220.200195312 328.291992188 218.700195312 c 1
 245.791992188 149.5 l 1
 280.4921875 120.400390625 311.391601562 94.5 328.291992188 80.2998046875 c 1
EndSplineSet
EndChar

StartChar: y
Encoding: 121 121 50
Width: 428
Flags: HW
LayerCount: 2
Fore
SplineSet
428.399414062 307 m 1
 428.399414062 307 410.799804688 250.799804688 415.700195312 198.200195312 c 1
 260 198.200195312 254 117.400390625 254 83.599609375 c 2
 254 27.400390625 l 1
 262.099609375 23 271.799804688 19.599609375 283.5 17.7998046875 c 1
 268.099609375 4.599609375 237.299804688 -0.900390625 214.200195312 -0.900390625 c 0
 191.099609375 -0.900390625 160.299804688 4.599609375 144.899414062 17.7998046875 c 1
 156.599609375 19.7001953125 166.299804688 23 174.399414062 27.400390625 c 1
 174.399414062 83.599609375 l 2
 174.399414062 117.400390625 168.399414062 198.200195312 12.7001953125 198.200195312 c 1
 17.599609375 250.799804688 0 307 0 307 c 1
 73.2998046875 307 l 1
 73.2998046875 287.700195312 l 1
 59.7001953125 287.700195312 46.8994140625 275.200195312 46.8994140625 275.200195312 c 1
 46.8994140625 243.5 78.3994140625 230.400390625 93 230.400390625 c 0
 107.599609375 230.400390625 177.099609375 222.299804688 205.399414062 207.799804688 c 1
 214.200195312 207.799804688 l 1
 223 207.799804688 l 1
 251.299804688 222.200195312 320.799804688 230.400390625 335.399414062 230.400390625 c 0
 350 230.400390625 381.5 243.400390625 381.5 275.200195312 c 1
 381.5 275.200195312 368.700195312 287.700195312 355.099609375 287.700195312 c 1
 355.099609375 307 l 1
 428.399414062 307 l 1
EndSplineSet
EndChar

StartChar: z
Encoding: 122 122 51
Width: 480
Flags: HW
LayerCount: 2
Fore
SplineSet
480.099609375 258.099609375 m 1
 480.099609375 195.5 l 1
 386.400390625 180.799804688 274.700195312 141.299804688 195.5 90.2998046875 c 1
 304.900390625 81.400390625 428.900390625 68 477.900390625 50.5 c 1
 477.900390625 35.400390625 l 1
 394.200195312 -7.2998046875 222.200195312 -9 107.700195312 7.599609375 c 1
 54.2998046875 15.400390625 13.400390625 27.099609375 0 40.5 c 1
 0 103.099609375 l 1
 93.7001953125 117.799804688 205.400390625 157.299804688 284.599609375 208.299804688 c 1
 175.200195312 217.200195312 51.2001953125 230.599609375 2.2001953125 248.099609375 c 1
 2.2001953125 263.200195312 l 1
 85.900390625 305.900390625 257.900390625 307.599609375 372.400390625 291 c 1
 425.799804688 283.200195312 466.700195312 271.5 480.099609375 258.099609375 c 1
EndSplineSet
EndChar

StartChar: exclam
Encoding: 33 33 52
Width: 269
Flags: HW
LayerCount: 2
Fore
SplineSet
254 17.2001953125 m 1
 174.299804688 -48.2001953125 174.299804688 -113.599609375 254 -179.099609375 c 1
 174.299804688 -130 94.7001953125 -130 15 -179.099609375 c 1
 94.7001953125 -113.599609375 94.7001953125 -48.2001953125 15 17.2001953125 c 1
 94.7001953125 -31.900390625 174.299804688 -31.900390625 254 17.2001953125 c 1
160.099609375 -101.900390625 m 1
 160.099609375 -59.900390625 l 1
 108.899414062 -59.900390625 l 1
 108.899414062 -101.900390625 l 1
 160.099609375 -101.900390625 l 1
63.599609375 562.099609375 m 1
 79.3994140625 579.700195312 110.899414062 587 134.5 587 c 0
 158.099609375 587 189.700195312 579.700195312 205.399414062 562.099609375 c 1
 158.099609375 478.200195312 158.099609375 142.400390625 205.399414062 58.5 c 1
 189.599609375 40.900390625 158.099609375 33.599609375 134.5 33.599609375 c 0
 110.899414062 33.599609375 79.2998046875 40.900390625 63.599609375 58.5 c 1
 110.899414062 142.400390625 110.899414062 478.200195312 63.599609375 562.099609375 c 1
EndSplineSet
EndChar

StartChar: quotedbl
Encoding: 34 34 53
Width: 202
Flags: HW
LayerCount: 2
Fore
SplineSet
155.5 414.099609375 m 0
 171.200195312 414.099609375 186.100585938 368.900390625 186.80078125 324.700195312 c 0
 186.100585938 280.400390625 171.200195312 235.299804688 155.5 235.299804688 c 0
 139.80078125 235.299804688 124.900390625 280.400390625 124.200195312 324.700195312 c 0
 124.900390625 369 139.900390625 414.099609375 155.5 414.099609375 c 0
46.30078125 414.099609375 m 0
 61.900390625 414.099609375 76.900390625 369 77.6005859375 324.700195312 c 0
 76.900390625 280.400390625 62 235.299804688 46.30078125 235.299804688 c 0
 30.6005859375 235.299804688 15.7001953125 280.400390625 15 324.700195312 c 0
 15.7001953125 368.900390625 30.6005859375 414.099609375 46.30078125 414.099609375 c 0
EndSplineSet
EndChar

StartChar: quotesingle
Encoding: 39 39 54
Width: 93
Flags: HW
LayerCount: 2
Fore
SplineSet
46.2998046875 414.099609375 m 0
 61.8994140625 414.099609375 76.8994140625 368.900390625 77.599609375 324.700195312 c 0
 76.8994140625 280.400390625 62 235.299804688 46.2998046875 235.299804688 c 0
 30.599609375 235.299804688 15.7001953125 280.400390625 15 324.700195312 c 0
 15.7001953125 369 30.7001953125 414.099609375 46.2998046875 414.099609375 c 0
EndSplineSet
EndChar

StartChar: question
Encoding: 63 63 55
Width: 528
Flags: HW
LayerCount: 2
Fore
SplineSet
257.5 -1.900390625 m 1
 184.700195312 -61.599609375 184.700195312 -121.299804688 257.5 -181 c 1
 184.799804688 -136.200195312 112.099609375 -136.200195312 39.3994140625 -181 c 1
 112.099609375 -121.299804688 112.099609375 -61.599609375 39.3994140625 -1.900390625 c 1
 112.099609375 -46.7001953125 184.799804688 -46.7001953125 257.5 -1.900390625 c 1
171.799804688 -110.599609375 m 1
 171.799804688 -72.2998046875 l 1
 125.099609375 -72.2998046875 l 1
 125.099609375 -110.599609375 l 1
 171.799804688 -110.599609375 l 1
513.200195312 316.700195312 m 0
 513.200195312 251.5 459.599609375 193.5 376.099609375 155.799804688 c 1
 376.399414062 155.799804688 l 1
 375.399414062 155.400390625 374.5 155.099609375 373.5 154.700195312 c 0
 355.5 146.700195312 336.200195312 139.799804688 315.700195312 133.799804688 c 0
 211.599609375 100 169 104.5 174.099609375 22.7001953125 c 1
 168.599609375 18 157.899414062 16.099609375 149.700195312 16.099609375 c 0
 141.5 16.099609375 130.700195312 18.099609375 125.299804688 22.7001953125 c 1
 138.799804688 45.2998046875 139.899414062 125.900390625 125.299804688 151.799804688 c 1
 186.099609375 152.799804688 l 1
 320.700195312 163.599609375 424.599609375 232.799804688 424.599609375 316.799804688 c 0
 424.599609375 408.299804688 301.5 482.400390625 149.700195312 482.400390625 c 0
 142.099609375 482.400390625 134.799804688 482.099609375 127.399414062 481.700195312 c 0
 96.5 476.5 84.7001953125 459.400390625 96.599609375 437.599609375 c 1
 70.2998046875 427.799804688 l 1
 15 507.900390625 l 1
 56.7001953125 517.299804688 102.099609375 522.5 149.700195312 522.5 c 0
 350.5 522.5 513.200195312 430.400390625 513.200195312 316.700195312 c 0
EndSplineSet
EndChar

StartChar: colon
Encoding: 58 58 56
Width: 149
Flags: HW
LayerCount: 2
Fore
SplineSet
134.099609375 -8.7998046875 m 1
 94.2998046875 39.599609375 54.7001953125 39.599609375 15 -8.7998046875 c 1
 44.7998046875 39.599609375 44.7998046875 87.900390625 15 136.299804688 c 1
 54.7001953125 87.900390625 94.3994140625 87.900390625 134.099609375 136.299804688 c 1
 104.299804688 87.900390625 104.299804688 39.599609375 134.099609375 -8.7998046875 c 1
61.7998046875 48.2001953125 m 1
 87.2998046875 48.2001953125 l 1
 87.2998046875 79.2998046875 l 1
 61.7998046875 79.2998046875 l 1
 61.7998046875 48.2001953125 l 1
134.099609375 200.799804688 m 1
 94.2998046875 249.099609375 54.7001953125 249.099609375 15 200.799804688 c 1
 44.7998046875 249.200195312 44.7998046875 297.5 15 345.900390625 c 1
 54.7001953125 297.5 94.3994140625 297.5 134.099609375 345.900390625 c 1
 104.299804688 297.5 104.299804688 249.200195312 134.099609375 200.799804688 c 1
61.7998046875 257.799804688 m 1
 87.2998046875 257.799804688 l 1
 87.2998046875 288.900390625 l 1
 61.7998046875 288.900390625 l 1
 61.7998046875 257.799804688 l 1
EndSplineSet
EndChar

StartChar: semicolon
Encoding: 59 59 57
Width: 185
Flags: HW
LayerCount: 2
Fore
SplineSet
170.399414062 351.299804688 m 1
 123.799804688 313 123.799804688 274.700195312 170.399414062 236.400390625 c 1
 123.799804688 265.200195312 77.19921875 265.200195312 30.5 236.400390625 c 1
 77.19921875 274.700195312 77.19921875 313 30.5 351.299804688 c 1
 77.099609375 322.5 123.69921875 322.5 170.399414062 351.299804688 c 1
115.5 281.599609375 m 1
 115.5 306.200195312 l 1
 85.5 306.200195312 l 1
 85.5 281.599609375 l 1
 115.5 281.599609375 l 1
140.099609375 142.799804688 m 1
 151 83.7998046875 116.599609375 -11 15 0.7998046875 c 1
 68.7998046875 53.5 70.3994140625 123.299804688 58.599609375 142.799804688 c 1
 80.599609375 159.900390625 117.899414062 159.900390625 140.099609375 142.799804688 c 1
EndSplineSet
EndChar

StartChar: comma
Encoding: 44 44 58
Width: 163
Flags: HW
LayerCount: 2
Fore
SplineSet
146.400390625 72.5 m 1
 157.900390625 10.5 121.80078125 -89.099609375 15 -76.7001953125 c 1
 71.5 -21.400390625 73.2001953125 52.099609375 60.80078125 72.5 c 1
 83.900390625 90.400390625 123.100585938 90.400390625 146.400390625 72.5 c 1
EndSplineSet
EndChar

StartChar: period
Encoding: 46 46 59
Width: 138
Flags: HW
LayerCount: 2
Fore
SplineSet
123.400390625 -16.2998046875 m 1
 87.2001953125 27.7001953125 51.2001953125 27.7001953125 15 -16.2998046875 c 1
 42.1005859375 27.7998046875 42.1005859375 71.7001953125 15 115.700195312 c 1
 51.2001953125 71.7001953125 87.2998046875 71.7001953125 123.400390625 115.700195312 c 1
 96.2998046875 71.599609375 96.2998046875 27.7001953125 123.400390625 -16.2998046875 c 1
57.6005859375 35.5 m 1
 80.7998046875 35.5 l 1
 80.7998046875 63.7998046875 l 1
 57.6005859375 63.7998046875 l 1
 57.6005859375 35.5 l 1
EndSplineSet
EndChar

